<svg id="e78o0CAW3F91" xmlns="http://www.w3.org/2000/svg" xmlns:xlink="http://www.w3.org/1999/xlink" viewBox="0 0 512 512" shape-rendering="geometricPrecision" text-rendering="geometricPrecision">
<style><![CDATA[
#e78o0CAW3F92_to {animation: e78o0CAW3F92_to__to 1500ms linear infinite normal forwards}@keyframes e78o0CAW3F92_to__to { 0% {transform: translate(255.999512px,256px);animation-timing-function: cubic-bezier(0.445,0.05,0.55,0.95)} 53.333333% {transform: translate(255.999512px,300px);animation-timing-function: cubic-bezier(0.445,0.05,0.55,0.95)} 100% {transform: translate(255.999512px,255.999495px)}}
]]></style>
<g id="e78o0CAW3F92_to" transform="translate(255.999512,256)"><g transform="translate(-255.999512,-255.999495)"><g><path d="M504.396,181.31c-60.018,0-104.368,38.809-116.491,50.638-48.276-11.705-78.346,7.199-95.212,25.461-8.824,9.554-14.916,19.801-18.905,28.012-2.417-3.758-5.416-7.89-9.048-12.021-15.922-18.111-36.483-27.683-59.461-27.683-19.439,0-34.921,6.011-46.858,13.867l36.531-83.644l3.674,7.229c1.297,2.552,3.917,4.159,6.779,4.159h54.409h21.17h87.626c4.199,0,7.604-3.405,7.604-7.604v-49.834c0-1.172-.273-2.277-.746-3.269l3.147-3.549c1.751-1.975,2.353-4.717,1.589-7.245L354.898,32.079c-.969-3.209-3.927-5.405-7.279-5.405h-33.744-40.185-17.157-33.744-40.186c-1.822,0-3.583.654-4.964,1.843L128.641,70.732c-.759.655-1.382,1.452-1.831,2.347L0.809,323.895C0.277,324.953,0,326.123,0,327.308v62.444c0,2.24.987,4.367,2.7,5.81c2.745,2.317,68.201,56.728,154.144,56.728c72.853,0,132.633-23.857,149.947-31.517l62.326,62.325c1.425,1.427,3.36,2.227,5.376,2.227h129.902c4.199,0,7.604-3.405,7.604-7.604v-288.807c.001-4.199-3.404-7.604-7.603-7.604Zm-143.387-9.191v0h-80.023-13.566v-14.28h3.018h27.085h13.101h33.744c2.176,0,4.246-.932,5.69-2.559l10.951-12.35v29.189ZM341.974,41.883l22.445,74.278-23.472,26.471h-13.418l17.343-19.559c1.751-1.975,2.353-4.717,1.589-7.245L324.118,41.884h17.856Zm-33.744,0l22.445,74.278-23.472,26.471h-9.68-10.18l17.343-19.559c1.752-1.975,2.353-4.717,1.59-7.245L283.932,41.884h24.298Zm69.412,428.235l-63.843-63.843c-2.297-2.296-5.802-2.879-8.719-1.454-.66.322-66.961,32.261-148.238,32.261-70.907,0-128.709-41.08-141.635-51.006v-56.967L139.718,81.263l45.708-39.38h37.363h33.744h11.511l22.444,74.278-23.472,26.471h-3.238-32.582v-7.688c0-7.647,6.22-13.867,13.867-13.867h12.362c2.527,0,4.888-1.255,6.302-3.349s1.695-4.753.751-7.097l-10.41-25.842c-.036-.09-.082-.174-.122-.263-.011-.024-.022-.049-.033-.072-.961-2.09-2.764-3.549-4.841-4.135-.004-.001-.008-.002-.011-.003-.223-.063-.449-.116-.678-.158-.043-.008-.086-.014-.129-.021-.193-.032-.387-.058-.583-.075-.075-.007-.15-.01-.226-.015-.165-.01-.33-.015-.496-.014-.046,0-.089-.005-.135-.004-1.685.044-27.537.022-44.504-.002-.004,0-.007,0-.011,0-4.194,0-7.598,3.397-7.604,7.593-.006,4.199,3.393,7.609,7.593,7.615c2.78.004,19.39.027,31.636.027c3.009,0,5.754-.001,7.965-.005l4.274,10.612h-1.101c-16.032,0-29.074,13.042-29.074,29.075v15.292c0,4.199,3.405,7.604,7.604,7.604h28.619v14.28h-42.14l-8.86-17.43c-1.333-2.623-4.081-4.246-7.001-4.155-2.941.085-5.568,1.86-6.746,4.557l-61.49,140.791c-1.663,3.806.036,8.242,3.816,9.963c3.778,1.721,8.241.092,10.022-3.659.196-.413,20.106-41.261,65.468-41.261c44.66,0,61.662,43.43,62.358,45.262c1.156,3.088,4.168,5.088,7.463,4.931c3.294-.148,6.117-2.402,6.991-5.581.056-.203,5.752-20.459,21.776-37.809c21.094-22.841,49.479-29.565,84.37-19.987c2.746.754,5.681-.089,7.608-2.184.433-.47,42.212-45.148,100.948-48.801v273.361h-119.152Z"/></g></g></g></svg>
